# AST/ASF file generated using VICON BodyLanguage
# -----------------------------------------------
:version 1.10
:name VICON
:units
  mass 1.0
  length 0.45
  angle deg
:documentation
   .ast/.asf automatically generated from VICON data using
   VICON BodyBuilder and BodyLanguage model FoxedUp or BRILLIANT.MOD
:root
   order TX TY TZ RX RY RZ
   axis XYZ
   position 0 0 0  
   orientation 0 0 0 
:bonedata
  begin
     id 1 
     name lhipjoint
     direction 0.78388 -0.462562 0.414208 
     length 3.01181 
     axis 0 0 0  XYZ
  end
  begin
     id 2 
     name lfemur
     direction 0.34202 -0.939693 0  
     length 6.04673  
     axis 0 0 20  XYZ
    dof rx ry rz
    limits (-160.0 20.0)
           (-70.0 70.0)
           (-60.0 70.0)
  end
  begin
     id 3 
     name ltibia
     direction 0.34202 -0.939693 0   
     length 7.211   
     axis 0 0 20   XYZ
    dof rx
    limits (-10.0 170.0)
  end
  begin
     id 4 
     name lfoot
     direction 0.121887 -0.334882 0.934344   
     length 2.13567   
     axis -90 7.62852e-016 20   XYZ
    dof rx rz
    limits (-45.0 90.0)
           (-70.0 20.0)
  end
  begin
     id 5 
     name ltoes
     direction 1.53555e-011 -4.2179e-011 1   
     length 1.05957   
     axis -90 7.62852e-016 20   XYZ
    dof rx
    limits (-90.0 20.0)
  end
  begin
     id 6 
     name rhipjoint
     direction -0.769387 -0.475875 0.426129   
     length 2.92756  
     axis 0 0 0  XYZ 
  end
  begin
     id 7 
     name rfemur
     direction -0.34202 -0.939693 0   
     length 6.35468   
     axis 0 0 -20   XYZ
    dof rx ry rz
    limits (-160.0 20.0)
           (-70.0 70.0)
           (-70.0 60.0)
  end
  begin
     id 8 
     name rtibia
     direction -0.34202 -0.939693 0   
     length 7.37886   
     axis 0 0 -20   XYZ
    dof rx
    limits (-10.0 170.0)
 end
 begin
     id 9 
     name rfoot
     direction -0.101763 -0.279592 0.954711   
     length 2.21478  
     axis -90 -7.62852e-016 -20   XYZ
    dof rx rz
    limits (-45.0 90.0)
           (-20.0 70.0)
  end
  begin
     id 10 
     name rtoes
     direction -1.53494e-011 -4.21851e-011 1   
     length 1.10506   
     axis -90 -7.62852e-016 -20   XYZ
    dof rx
    limits (-90.0 20.0)
  end
  begin
     id 11 
     name lowerback
     direction 0.00747405 0.999267 0.0375481   
     length 2.13259   
     axis 0 0 0   XYZ
    dof rx ry rz
    limits (-20.0 45.0)
           (-30.0 30.0)
           (-30.0 30.0)
  end
  begin
     id 12 
     name upperback
     direction 0.00661626 0.996177 0.0871029   
     length 2.10528   
     axis 0 0 0   XYZ
    dof rx ry rz
    limits (-20.0 45.0)
           (-30.0 30.0)
           (-30.0 30.0)
  end
  begin
     id 13 
     name thorax
     direction 0.00320659 0.997679 0.0680167   
     length 2.11338   
     axis 0 0 0   XYZ
    dof rx ry rz
    limits (-20.0 45.0)
           (-30.0 30.0)
           (-30.0 30.0)
  end
  begin
     id 14 
     name lowerneck
     direction 0.0374841 0.973033 0.227602   
     length 1.42765   
     axis 0 0 0   XYZ
    dof rx ry rz
    limits (-20.0 45.0)
           (-30.0 30.0)
           (-30.0 30.0)
  end
  begin
     id 15 
     name upperneck
     direction 0.00481585 0.989155 -0.146795   
     length 1.47593   
     axis 0 0 0   XYZ
    dof rx ry rz
    limits (-20.0 45.0)
           (-30.0 30.0)
           (-30.0 30.0)
  end
  begin
     id 16
     name head
     direction -0.00292522 0.997206 -0.0746423  
     length 1.48116  
     axis 0 0 0   XYZ
    dof rx ry rz
    limits (-20.0 45.0)
           (-30.0 30.0)
           (-30.0 30.0)
  end
  begin
     id 17 
     name lclavicle
     direction 0.951444 0.305606 0.0368784  
     length 3.01855  
     axis 0 0 0   XYZ
    dof ry rz
    limits (-20.0 10.0)
           (0.0 20.0)
  end
  begin
     id 18 
     name lhumerus
     direction 1 -4.48977e-011 2.61664e-027   
     length 5.52731   
     axis 180 -30 -90   XYZ
    dof rx ry rz
    limits (-60.0 90.0)
           (-90.0 90.0)
           (-90.0 90.0)
  end
  begin
     id 19
     name lradius
     direction 1 -4.48944e-011 8.22157e-027   
     length 3.11059   
     axis 180 -30 -90   XYZ
    dof rx
    limits (-10.0 170.0)
  end
  begin
     id 20
     name lwrist
     direction 1 -4.48976e-011 1.5779e-026   
     length 1.5553   
     axis -1.15221e-014 90 90   XYZ
    dof ry
    limits (-180.0 0.0)
 end
  begin
     id 21 
     name lhand
     direction 1 -4.49025e-011 3.1558e-026   
     length 0.419626   
     axis -2.01367e-014 90 90   XYZ
    dof rx rz
    limits (-90.0 90.0)
           (-45.0 45.0)
  end
  begin
     id 22 
     name lfingers
     direction 1 -4.4904e-011 6.31161e-026   
     length 0.338313   
     axis -4.02734e-014 90 90   XYZ
    dof rx
    limits (0.0 90.0)
  end
  begin
     id 23
     name lthumb
     direction 0.707107 -6.35004e-011 0.707107   
     length 0.485752   
     axis -90 45 2.85299e-015   XYZ
    dof rx rz
    limits (-45.0 45.0)
           (-45.0 45.0)
  end
  begin
     id 24 
     name rclavicle
     direction -0.968876 0.223791 0.105816   
     length 3.04177  
     axis 0 0 0   XYZ 
    dof ry rz
    limits (-10.0 20.0)
           (-20.0 0.0)
  end
  begin
     id 25 
     name rhumerus
     direction -1 -4.48962e-011 -1.01384e-027  
     length 5.25396   
     axis 180 30 90   XYZ
    dof rx ry rz
    limits (-90.0 60.0)
           (-90.0 90.0)
           (-90.0 90.0)
  end
  begin
     id 26 
     name rradius
     direction -1 -4.48955e-011 8.88542e-027   
     length 3.10567   
     axis 180 30 90   XYZ
    dof rx
    limits (-10.0 170.0)
  end
  begin
     id 27 
     name rwrist
     direction -1 -4.48994e-011 1.5779e-026   
     length 1.55283   
     axis -1.15221e-014 -90 -90   XYZ
    dof ry
    limits (-180.0 0.0)
  end
  begin
     id 28
     name rhand
     direction -1 -4.48891e-011 3.1558e-026   
     length 0.498676   
     axis -2.01367e-014 -90 -90   XYZ
    dof rx rz
    limits (-90.0 90.0)
           (-45.0 45.0)
  end
  begin
     id 29
     name rfingers
     direction -1 -4.48972e-011 6.31161e-026   
     length 0.402045   
     axis -4.02734e-014 -90 -90   XYZ
    dof rx
    limits (0.0 90.0)
  end
  begin
     id 30
     name rthumb
     direction -0.707107 -6.34849e-011 0.707107   
     length 0.577259   
     axis -90 -45 -2.85299e-015   XYZ
    dof rx rz
    limits (-45.0 45.0)
           (-45.0 45.0)
  end
:hierarchy
  begin
    root lhipjoint rhipjoint lowerback
    lhipjoint lfemur
    lfemur ltibia
    ltibia lfoot
    lfoot ltoes
    rhipjoint rfemur
    rfemur rtibia
    rtibia rfoot
    rfoot rtoes
    lowerback upperback
    upperback thorax
    thorax lowerneck lclavicle rclavicle
    lowerneck upperneck
    upperneck head
    lclavicle lhumerus
    lhumerus lradius
    lradius lwrist
    lwrist lhand lthumb
    lhand lfingers
    rclavicle rhumerus
    rhumerus rradius
    rradius rwrist
    rwrist rhand rthumb
    rhand rfingers
  end

#!OML:ASF H:\Pregnant\Project 1\Capture day 1\Session 1\femalepreg.ASF
:FULLY-SPECIFIED
:DEGREES
152
root 6.22284 12.0257 21.3897 59.6132 -77.8579 -17.4495
lowerback 31.8054 1.31498 -0.0214093
upperback 8.7736 1.1316 2.19188
thorax -7.48182 0.233448 2.10477
lowerneck -32.3072 3.71506 6.44814
upperneck -2.91852 1.82814 -1.9516
head 3.84173 0.388125 -1.45025
rclavicle 1.17283e-014 2.88486e-014
rhumerus 44.3992 18.2704 -74.5675
rradius 22.5371
rwrist 5.29089
rhand -30.0375 -14.5122
rfingers 7.12502
rthumb -3.35372 -44.4656
lclavicle 1.17283e-014 2.88486e-014
lhumerus 44.1792 -20.9207 47.7569
lradius 30.8725
lwrist 40.7074
lhand -36.5197 -7.00989
lfingers 7.12502
lthumb -9.61129 22.7509
rfemur -103.247 -12.3513 40.1872
rtibia 91.9569
rfoot -28.7561 14.8917
rtoes 21.3322
lfemur -104.119 10.2686 -26.8071
ltibia 92.2545
lfoot -27.813 -12.3981
ltoes -4.00556
153
root 6.1949 11.9687 21.3696 62.9074 -78.1492 -20.7204
lowerback 31.7561 1.7771 -0.396057
upperback 8.89106 1.56943 2.1771
thorax -7.35148 0.430702 2.14481
lowerneck -32.5755 3.81648 6.73954
upperneck -2.92144 1.82018 -2.00219
head 3.87334 0.371325 -1.51218
rclavicle 2.26615e-014 1.90336e-014
rhumerus 44.7146 18.0917 -74.846
rradius 22.3178
rwrist 5.69908
rhand -30.8385 -15.0361
rfingers 7.12502
rthumb -4.12716 -44.9758
lclavicle 2.26615e-014 1.90336e-014
lhumerus 44.4748 -20.7303 47.1824
lradius 30.595
lwrist 40.7204
lhand -36.8121 -6.88884
lfingers 7.12502
lthumb -9.89338 22.8587
rfemur -103.283 -11.3939 40.3039
rtibia 92.4894
rfoot -29.0014 14.6153
rtoes 21.4034
lfemur -104.862 11.394 -26.8969
ltibia 93.3095
lfoot -28.2639 -12.5325
ltoes -3.9918
154
root 6.16677 11.9099 21.3546 65.4885 -78.3105 -23.2511
lowerback 31.7015 2.11114 -0.634318
upperback 8.99659 1.89233 2.1502
thorax -7.22622 0.575143 2.13499
lowerneck -32.8702 3.92262 7.00417
upperneck -2.91377 1.82155 -2.02599
head 3.91098 0.36107 -1.55986
rclavicle -1.86361e-014 -1.21507e-014
rhumerus 45.0212 17.9453 -75.1854
rradius 22.1093
rwrist 6.14117
rhand -31.8066 -15.7002
rfingers 7.12502
rthumb -5.062 -45.6198
lclavicle -1.86361e-014 -1.21507e-014
lhumerus 44.7264 -20.5135 46.6239
lradius 30.3051
lwrist 40.7126
lhand -37.1112 -6.74517
lfingers 7.12502
lthumb -10.1819 22.9884
rfemur -103.426 -10.6634 40.4252
rtibia 93.0675
rfoot -29.253 14.3826
rtoes 21.489
lfemur -105.575 12.2738 -27.0015
ltibia 94.3091
lfoot -28.6834 -12.6226
ltoes -3.87761
155
root 6.13897 11.8494 21.345 67.0528 -78.3502 -24.7441
lowerback 31.6777 2.30037 -0.71034
upperback 9.08275 2.08759 2.11417
thorax -7.12681 0.66132 2.06774
lowerneck -33.1827 4.01977 7.22499
upperneck -2.89588 1.82248 -2.02695
head 3.95314 0.352673 -1.59315
rclavicle -1.71949e-014 -1.49461e-014
rhumerus 45.3008 17.7929 -75.6067
rradius 21.9072
rwrist 6.68205
rhand -32.8808 -16.5212
rfingers 7.12502
rthumb -6.09916 -46.4134
lclavicle -1.71949e-014 -1.49461e-014
lhumerus 44.9263 -20.2813 46.0984
lradius 30.0178
lwrist 40.6795
lhand -37.3824 -6.57822
lfingers 7.12502
lthumb -10.4435 23.1424
rfemur -103.687 -10.213 40.5493
rtibia 93.7212
rfoot -29.5419 14.1907
rtoes 21.5592
lfemur -106.233 12.8418 -27.1023
ltibia 95.2118
lfoot -29.031 -12.6672
ltoes -3.6589
156
root 6.11281 11.7881 21.3432 66.7977 -78.2302 -24.4323
lowerback 31.7758 2.27639 -0.548675
upperback 9.15143 2.09292 2.07997
thorax -7.08648 0.660011 1.93315
lowerneck -33.5079 4.1021 7.40363
upperneck -2.87358 1.81721 -2.02774
head 3.99751 0.341439 -1.6206
rclavicle -1.74434e-014 -1.55052e-014
rhumerus 45.5539 17.6081 -76.0569
rradius 21.714
rwrist 7.32049
rhand -33.9935 -17.3842
rfingers 7.12502
rthumb -7.17333 -47.2427
lclavicle -1.74434e-014 -1.55052e-014
lhumerus 45.0843 -20.0292 45.6507
lradius 29.7282
lwrist 40.6073
lhand -37.6147 -6.39584
lfingers 7.12502
lthumb -10.6677 23.3134
rfemur -104.091 -10.2519 40.665
rtibia 94.4724
rfoot -29.8832 14.0625
rtoes 21.5661
lfemur -106.724 12.8762 -27.1721
ltibia 95.9709
lfoot -29.2836 -12.6015
ltoes -3.39101
157
root 6.08924 11.7258 21.3514 64.3304 -77.8998 -21.9283
lowerback 32.0305 1.98217 -0.0772706
upperback 9.19511 1.86206 2.04411
thorax -7.12682 0.550173 1.70224
lowerneck -33.8231 4.16195 7.53634
upperneck -2.85958 1.80009 -2.02621
head 4.03705 0.324774 -1.64177
rclavicle 7.16122e-014 6.54436e-014
rhumerus 45.7566 17.3201 -76.5958
rradius 21.5012
rwrist 8.16811
rhand -35.045 -18.0946
rfingers 7.12502
rthumb -8.18817 -47.916
lclavicle 7.16122e-014 6.54436e-014
lhumerus 45.2057 -19.7559 45.3172
lradius 29.4207
lwrist 40.4762
lhand -37.7788 -6.23488
lfingers 7.12502
lthumb -10.826 23.4661
rfemur -104.678 -10.9147 40.7851
rtibia 95.3478
rfoot -30.2928 14.0284
rtoes 21.5285
lfemur -107.006 12.2445 -27.2028
ltibia 96.5512
lfoot -29.4092 -12.3929
ltoes -3.11848
158
root 6.06357 11.6646 21.3487 63.5166 -77.718 -21.0441
lowerback 32.1643 1.9204 0.0923374
upperback 9.23928 1.83136 2.04186
thorax -7.13057 0.533563 1.61195
lowerneck -34.12 4.22524 7.67993
upperneck -2.8605 1.78489 -2.04038
head 4.06973 0.307414 -1.66976
rclavicle -7.00126e-014 -4.91487e-014
rhumerus 45.9347 17.0168 -77.0672
rradius 21.337
rwrist 9.01254
rhand -35.9952 -18.6774
rfingers 7.12502
rthumb -9.10522 -48.4608
lclavicle -7.00126e-014 -4.91487e-014
lhumerus 45.2985 -19.4592 45.059
lradius 29.1067
lwrist 40.3238
lhand -37.9216 -6.1008
lfingers 7.12502
lthumb -10.9637 23.5929
rfemur -105.154 -11.1275 40.9191
rtibia 96.165
rfoot -30.6965 13.8672
rtoes 21.4064
lfemur -107.45 12.0654 -27.239
ltibia 97.1852
lfoot -29.5651 -12.2787
ltoes -2.90933
159
root 6.04008 11.6039 21.3564 60.8021 -77.3108 -18.3213
lowerback 32.4852 1.60141 0.565709
upperback 9.27685 1.57799 2.02596
thorax -7.21102 0.413468 1.41155
lowerneck -34.4058 4.27666 7.80434
upperneck -2.87974 1.76088 -2.04838
head 4.09436 0.285669 -1.69398
rclavicle -2.9122e-014 -5.54423e-015
rhumerus 46.0855 16.598 -77.6291
rradius 21.1489
rwrist 10.0428
rhand -36.8197 -18.9513
rfingers 7.12502
rthumb -9.90074 -48.6985
lclavicle -2.9122e-014 -5.54423e-015
lhumerus 45.3816 -19.136 44.8781
lradius 28.7856
lwrist 40.1747
lhand -38.0612 -6.02593
lfingers 7.12502
lthumb -11.0983 23.6606
rfemur -105.741 -11.9501 41.0645
rtibia 97.0671
rfoot -31.155 13.8121
rtoes 21.2686
lfemur -107.637 11.2778 -27.2324
ltibia 97.6601
lfoot -29.6286 -12.0107
ltoes -2.7892
160
root 6.01634 11.5441 21.3656 58.1218 -76.8558 -15.6545
lowerback 33.177 1.24529 1.0888
upperback 8.8891 1.30507 2.02881
thorax -7.21323 0.271999 1.13077
lowerneck -34.6831 4.33644 7.9439
upperneck -2.90633 1.74036 -2.04581
head 4.11538 0.266089 -1.71658
rclavicle -5.46658e-015 4.80562e-014
rhumerus 46.2386 16.1903 -78.1463
rradius 20.996
rwrist 11.0311
rhand -37.5696 -19.0145
rfingers 7.12502
rthumb -10.6241 -48.7259
lclavicle -5.46658e-015 4.80562e-014
lhumerus 45.4451 -18.7758 44.7329
lradius 28.4648
lwrist 40.0566
lhand -38.2234 -6.0049
lfingers 7.12502
lthumb -11.2547 23.6732
rfemur -106.308 -12.8409 41.2292
rtibia 97.9577
rfoot -31.6193 13.7694
rtoes 21.137
lfemur -107.773 10.4441 -27.2115
ltibia 98.1078
lfoot -29.6878 -11.7151
ltoes -2.76944
